<svg xmlns="http://www.w3.org/2000/svg" xmlns:xlink="http://www.w3.org/1999/xlink" viewBox="0 0 1051.6 1199.8"><defs><style>.cls-1{fill:url(#linear-gradient);}</style><linearGradient id="linear-gradient" x1="72.45" y1="980.19" x2="978.99" y2="219.51" gradientUnits="userSpaceOnUse"><stop offset="0" stop-color="#46aef7"/><stop offset="1" stop-color="#0fcbfd"/></linearGradient></defs><title>Metastack Color Icon Logo</title><g id="Layer_2" data-name="Layer 2"><g id="Layer_1-2" data-name="Layer 1"><path class="cls-1" d="M0,599.84q0-138,0-276c0-18.34,7.68-31.79,23.6-41q238.59-137.56,477-275.38c17.2-9.95,33.12-9.92,50.29,0q238.08,137.75,476.44,275c16.47,9.49,24.25,23.16,24.24,42.05q-.13,275.34,0,550.68c0,18.88-7.78,32.55-24.24,42q-238.63,137.49-477.07,275.33c-16.69,9.65-32.37,9.65-49,0q-238.71-138-477.65-275.71C7.67,907.68,0,894.22,0,875.88Q.14,737.87,0,599.84Zm69.79-.59q0,128.18-.14,256.34c0,5.75,2,8.72,6.74,11.47q221.58,127.68,443,255.68c4.61,2.66,7.91,2.82,12.63.09q221-127.89,442.31-255.38c5.14-3,7.58-5.91,7.57-12.42q-.36-255.28-.06-510.57c0-5.94-1.87-9-7-12q-221.61-127.6-443-255.67c-4.41-2.55-7.57-2.65-12-.08Q298.74,204.55,77.44,332c-5.94,3.42-7.78,7.07-7.76,13.74Q70,472.49,69.83,599.25Zm191.72-120c2.44,10.49,10.06,15.79,18.59,20.7Q491.58,621.82,703,743.76c13.61,7.85,27.12,15.87,40.9,23.41,10.43,5.7,22.33,4.28,30.73-3.48s11.31-17.61,7.77-28.79c-2.57-8.11-8.7-13-15.84-17.08q-101.21-58.2-202.3-116.58Q434.78,526.57,305.28,452c-5.36-3.08-11.47-4.84-14.43-6.06C270.32,446.07,257.65,462.54,261.55,479.29Zm110.08-69.45c-3.41,13,1.66,24,14.82,31.62q106,61.29,212,122.49c45.07,26,90,52.3,135.32,77.95,6.18,3.5,14.15,5.84,21.13,5.49,12.21-.61,20.63-10,23-22.24,2-10.59-3.2-21.71-13.7-27.84-28.16-16.41-56.43-32.63-84.65-48.93q-131.88-76.19-263.8-152.29c-5.56-3.2-11.83-5.17-15-6.52C385.28,389.79,374.73,398.07,371.63,409.84Zm285,365.67Q509.15,690.58,361.8,605.32c-18.27-10.56-36.49-21.22-54.88-31.55-10.59-5.95-22-4.74-30.88,2.58a27.24,27.24,0,0,0-8.25,29.32c2.69,8.07,8.73,12.94,15.88,17.06Q422.93,703,562.08,783.44c23.56,13.6,47,27.42,70.7,40.74,18.83,10.59,40.91-1.7,41.26-23.15C673.61,789.34,667.05,781.49,656.67,775.51ZM769,479Q665.95,419.76,563.07,360.16c-18.27-10.56-36.48-21.24-54.89-31.56-10.62-6-22-4.65-30.84,2.78a26.91,26.91,0,0,0-8.11,29.34c2.55,7.51,8,12.38,14.75,16.28Q587,436.36,689.9,495.89c18.27,10.55,36.39,21.39,54.91,31.51s40.31-2.55,40.51-24C784.74,492.74,779,484.78,769,479ZM260.65,705.66c-3.61,11.54.3,23.56,10.34,30.4,5.23,3.55,10.87,6.48,16.35,9.65Q410.7,817,534.07,888.18c15.17,8.75,31.18,5,39-8.73,7.71-13.48,3.35-29.12-11-37.42Q431.53,766.45,300.75,691.18c-4.35-2.5-9.53-3.55-14.32-5.28C274.67,687,264,694.83,260.65,705.66Z"/></g></g></svg>