<svg width="" height="" viewBox="0 0 166 41" fill="none" xmlns="http://www.w3.org/2000/svg">
<path d="M0 20.2552C0 17.1485 0 14.0418 0 10.9352C0 10.3159 0.259339 9.86168 0.796927 9.55067C6.16808 6.45391 11.5372 3.35423 16.9043 0.251615C17.4851 -0.0843779 18.0227 -0.0833649 18.6025 0.251615C23.9622 3.35265 29.325 6.44806 34.691 9.53784C35.2471 9.8583 35.5099 10.3199 35.5095 10.9578C35.5066 17.1563 35.5066 23.3547 35.5095 29.5532C35.5095 30.1907 35.2468 30.6524 34.691 30.9715C29.3189 34.0667 23.949 37.1658 18.5812 40.2688C18.0176 40.5947 17.4882 40.5947 16.9266 40.2688C11.5527 37.1622 6.1763 34.0588 0.797265 30.9586C0.259001 30.6503 0 30.1958 0 29.5765C0.00315169 26.4696 0.00315169 23.3625 0 20.2552ZM2.35668 20.2352C2.35668 23.1208 2.3551 26.0062 2.35195 28.8913C2.35195 29.0855 2.41948 29.1858 2.57954 29.2787C7.56777 32.153 12.5542 35.031 17.5388 37.9125C17.6945 38.0023 17.8059 38.0077 17.9653 37.9155C22.9405 35.0365 27.9191 32.1619 32.9013 29.2918C33.0748 29.1905 33.1572 29.0923 33.1569 28.8724C33.1488 23.1256 33.1481 17.3786 33.1549 11.6315C33.1549 11.4309 33.0917 11.3275 32.9185 11.2262C27.9296 8.35371 22.9432 5.47588 17.9592 2.59276C17.8103 2.50665 17.7036 2.50327 17.554 2.59006C12.5766 5.468 7.59692 8.34155 2.615 11.2107C2.41442 11.3262 2.35229 11.4495 2.35296 11.6747C2.36016 14.5281 2.36185 17.3816 2.35803 20.2352H2.35668ZM8.8307 16.1831C8.91309 16.5373 9.1704 16.7163 9.45844 16.8821C14.2193 19.6256 18.9795 22.3699 23.739 25.1151C24.1986 25.3801 24.6548 25.651 25.1201 25.9056C25.4723 26.0981 25.8741 26.0501 26.1578 25.7881C26.4414 25.526 26.5397 25.1934 26.4202 24.8159C26.3334 24.542 26.1264 24.3769 25.8853 24.2391C23.6068 22.9289 21.3297 21.6167 19.054 20.3024C16.1391 18.6215 13.224 16.9416 10.3087 15.2629C10.1277 15.1589 9.9214 15.0994 9.82145 15.0582C9.12819 15.0626 8.70035 15.6188 8.83205 16.1844L8.8307 16.1831ZM12.5479 13.8379C12.4327 14.2769 12.6039 14.6483 13.0483 14.9056C15.4346 16.2854 17.8209 17.6641 20.2072 19.0419C21.7291 19.9198 23.2463 20.8079 24.7767 21.6741C24.9854 21.7923 25.2545 21.8713 25.4902 21.8595C25.9025 21.8389 26.1868 21.5218 26.2669 21.1085C26.3344 20.7509 26.1588 20.3754 25.8042 20.1684C24.8533 19.6142 23.8987 19.0665 22.9458 18.5161C19.9769 16.8009 17.0075 15.0867 14.0377 13.3736C13.85 13.2655 13.6383 13.199 13.5312 13.1534C13.0102 13.1622 12.6539 13.4418 12.5492 13.8392L12.5479 13.8379ZM22.1718 26.1859C18.8526 24.2748 15.5345 22.3596 12.2173 20.4402C11.6004 20.0836 10.9851 19.7236 10.3641 19.3748C10.0065 19.1739 9.62121 19.2148 9.32135 19.4619C9.18157 19.5805 9.08038 19.738 9.03074 19.9144C8.98111 20.0908 8.98529 20.278 9.04276 20.452C9.1336 20.7245 9.33755 20.889 9.579 21.0281C12.714 22.8352 15.8478 24.6441 18.9804 26.455C19.7759 26.9142 20.5675 27.3809 21.3678 27.8307C22.0036 28.1883 22.7492 27.7733 22.761 27.049C22.7465 26.6542 22.525 26.3891 22.1745 26.1872L22.1718 26.1859ZM25.9677 16.1746C23.6478 14.841 21.3298 13.5033 19.0138 12.1616C18.3969 11.805 17.7819 11.4444 17.1603 11.0959C16.8017 10.8933 16.4174 10.9389 16.1189 11.1898C15.9785 11.308 15.8773 11.4659 15.8284 11.6427C15.7795 11.8196 15.7853 12.007 15.845 12.1805C15.9311 12.4341 16.1152 12.5986 16.3431 12.7303C18.6623 14.0666 20.9801 15.4048 23.2966 16.745C23.9136 17.1012 24.5254 17.4673 25.1508 17.809C25.7762 18.1507 26.512 17.7229 26.5188 16.9986C26.4992 16.6386 26.3053 16.3698 25.9677 16.1746ZM8.80165 23.8285C8.67975 24.2182 8.81178 24.6241 9.15082 24.8551C9.32742 24.9749 9.51788 25.0739 9.70293 25.1809C12.48 26.7858 15.2572 28.3894 18.0345 29.9919C18.5468 30.2873 19.0874 30.1607 19.3515 29.6971C19.6118 29.2419 19.4646 28.7137 18.98 28.4335C16.0413 26.732 13.0999 25.034 10.1558 23.3395C10.0089 23.2551 9.83395 23.2197 9.6722 23.1612C9.27508 23.1984 8.91478 23.4628 8.80165 23.8285Z" fill="#46AEF7"/>
<path d="M48.8608 20.0294V24.3458C48.8608 24.4903 48.8034 24.6289 48.7013 24.7311C48.5992 24.8332 48.4606 24.8907 48.3162 24.8908H47.3884C47.2439 24.8908 47.1052 24.8334 47.0031 24.7312C46.9009 24.629 46.8434 24.4904 46.8434 24.3458V16.0682C46.8434 15.9236 46.9009 15.785 47.0031 15.6828C47.1052 15.5807 47.2439 15.5232 47.3884 15.5232H48.5467C48.6422 15.5231 48.7361 15.5481 48.8189 15.5957C48.9017 15.6433 48.9705 15.7119 49.0184 15.7946L51.7654 20.5453L52.8215 22.3712C52.8326 22.3906 52.8486 22.4066 52.8679 22.4178C52.8872 22.4289 52.9092 22.4348 52.9315 22.4348C52.9538 22.4348 52.9757 22.4289 52.995 22.4178C53.0143 22.4066 53.0303 22.3906 53.0414 22.3712L54.0977 20.5453L56.8448 15.7946C56.8926 15.7118 56.9614 15.6431 57.0442 15.5953C57.127 15.5476 57.2209 15.5224 57.3165 15.5224H58.4745C58.6191 15.5224 58.7577 15.5798 58.8599 15.682C58.9621 15.7842 59.0195 15.9228 59.0195 16.0673V24.3458C59.0195 24.4904 58.9621 24.629 58.8599 24.7312C58.7577 24.8334 58.6191 24.8908 58.4745 24.8908H57.547C57.4025 24.8908 57.2639 24.8334 57.1617 24.7312C57.0595 24.629 57.0021 24.4904 57.0021 24.3458V20.0294C57.0021 20.0014 56.9928 19.9743 56.9758 19.9521C56.9587 19.9299 56.9348 19.914 56.9078 19.9067C56.8808 19.8995 56.8521 19.9014 56.8263 19.9121C56.8004 19.9228 56.7788 19.9418 56.7648 19.966L55.2642 22.5607L54.0977 24.5769C54.0428 24.6719 53.9638 24.7508 53.8688 24.8056C53.7737 24.8605 53.6659 24.8894 53.5562 24.8894H52.3067C52.197 24.8894 52.0893 24.8605 51.9942 24.8057C51.8992 24.7508 51.8203 24.6719 51.7654 24.5769L50.599 22.5607L49.0981 19.966C49.0841 19.9418 49.0625 19.9228 49.0366 19.9121C49.0108 19.9014 48.9821 19.8995 48.9551 19.9067C48.9281 19.914 48.9042 19.9299 48.8872 19.9521C48.8701 19.9743 48.8608 20.0014 48.8608 20.0294ZM61.9741 15.4905H71.5764C71.6207 15.4905 71.6645 15.4993 71.7054 15.5164C71.7463 15.5334 71.7834 15.5584 71.8146 15.5898C71.8458 15.6213 71.8704 15.6586 71.8871 15.6997C71.9038 15.7407 71.9121 15.7847 71.9117 15.829V17.1703C71.9122 17.2147 71.9038 17.2586 71.8872 17.2997C71.8705 17.3408 71.8459 17.3781 71.8147 17.4096C71.7835 17.4411 71.7464 17.4661 71.7055 17.4832C71.6646 17.5002 71.6207 17.509 71.5764 17.509H61.9741C61.9299 17.5088 61.8862 17.4999 61.8454 17.4828C61.8047 17.4656 61.7677 17.4406 61.7367 17.4091C61.7057 17.3777 61.6812 17.3404 61.6646 17.2994C61.648 17.2584 61.6397 17.2145 61.6402 17.1703V15.829C61.6398 15.7848 61.6481 15.741 61.6647 15.7C61.6813 15.6591 61.7058 15.6218 61.7368 15.5903C61.7678 15.5589 61.8048 15.5339 61.8455 15.5168C61.8862 15.4996 61.9299 15.4907 61.9741 15.4905ZM61.9741 19.1648H71.5764C71.6207 19.1648 71.6646 19.1736 71.7055 19.1906C71.7464 19.2077 71.7835 19.2327 71.8147 19.2642C71.8459 19.2957 71.8705 19.333 71.8872 19.3741C71.9038 19.4152 71.9122 19.4592 71.9117 19.5035V20.8449C71.9121 20.8891 71.9038 20.9331 71.8871 20.9741C71.8704 21.0152 71.8458 21.0525 71.8146 21.084C71.7834 21.1154 71.7463 21.1404 71.7054 21.1575C71.6645 21.1745 71.6207 21.1833 71.5764 21.1833H61.9741C61.9299 21.1831 61.8862 21.1742 61.8455 21.1571C61.8048 21.1399 61.7678 21.1149 61.7368 21.0835C61.7058 21.052 61.6813 21.0148 61.6647 20.9738C61.6481 20.9329 61.6398 20.889 61.6402 20.8449V19.5035C61.6397 19.4593 61.648 19.4154 61.6646 19.3744C61.6812 19.3335 61.7057 19.2962 61.7367 19.2647C61.7677 19.2332 61.8047 19.2082 61.8454 19.191C61.8862 19.1739 61.9299 19.165 61.9741 19.1648ZM61.9741 22.8393H71.5764C71.6207 22.8393 71.6645 22.8481 71.7054 22.8651C71.7463 22.8822 71.7834 22.9071 71.8146 22.9386C71.8458 22.9701 71.8704 23.0074 71.8871 23.0484C71.9038 23.0895 71.9121 23.1334 71.9117 23.1777V24.5191C71.9122 24.5634 71.9038 24.6074 71.8872 24.6485C71.8705 24.6895 71.8459 24.7269 71.8147 24.7584C71.7835 24.7899 71.7464 24.8149 71.7055 24.8319C71.6646 24.849 71.6207 24.8578 71.5764 24.8578H61.9741C61.9299 24.8576 61.8862 24.8487 61.8454 24.8315C61.8047 24.8144 61.7677 24.7894 61.7367 24.7579C61.7057 24.7264 61.6812 24.6891 61.6646 24.6481C61.648 24.6071 61.6397 24.5633 61.6402 24.5191V23.1777C61.6398 23.1335 61.6481 23.0897 61.6647 23.0488C61.6813 23.0078 61.7058 22.9706 61.7368 22.9391C61.7678 22.9077 61.8048 22.8826 61.8455 22.8655C61.8862 22.8484 61.9299 22.8395 61.9741 22.8393ZM74.3424 17.0935V15.9064C74.3422 15.8519 74.3528 15.7979 74.3735 15.7475C74.3942 15.6972 74.4246 15.6513 74.463 15.6127C74.5014 15.5741 74.5471 15.5434 74.5973 15.5225C74.6476 15.5015 74.7015 15.4907 74.756 15.4905H85.4188C85.4734 15.4904 85.5275 15.5011 85.578 15.522C85.6284 15.5428 85.6743 15.5735 85.7129 15.6121C85.7515 15.6508 85.782 15.6967 85.8028 15.7472C85.8236 15.7976 85.8342 15.8518 85.834 15.9064V17.0949C85.834 17.2048 85.7904 17.3102 85.7127 17.3879C85.6349 17.4656 85.5295 17.5093 85.4196 17.5093H81.5115C81.4016 17.5093 81.2962 17.553 81.2184 17.6307C81.1407 17.7084 81.097 17.8138 81.097 17.9237V24.4422C81.097 24.5522 81.0534 24.6576 80.9757 24.7353C80.8979 24.813 80.7925 24.8567 80.6826 24.8567H79.4941C79.3842 24.8567 79.2788 24.813 79.2011 24.7353C79.1233 24.6576 79.0797 24.5522 79.0797 24.4422V17.9223C79.0797 17.8124 79.036 17.707 78.9583 17.6293C78.8806 17.5516 78.7752 17.5079 78.6652 17.5079H74.756C74.6462 17.5077 74.541 17.4639 74.4635 17.3862C74.386 17.3085 74.3424 17.2033 74.3424 17.0935ZM96.994 24.599L96.2434 23.4429C96.1949 23.3684 96.1287 23.3071 96.0506 23.2646C95.9725 23.2222 95.8851 23.1998 95.7962 23.1995H88.9611C88.8722 23.1997 88.7848 23.2221 88.7067 23.2646C88.6287 23.3071 88.5624 23.3684 88.514 23.4429L87.7631 24.599C87.7117 24.6782 87.6413 24.7433 87.5584 24.7883C87.4754 24.8333 87.3824 24.8568 87.288 24.8567H86.2295C86.1276 24.8567 86.0276 24.8293 85.9401 24.7773C85.8525 24.7252 85.7806 24.6505 85.732 24.5611C85.6833 24.4716 85.6597 24.3706 85.6637 24.2689C85.6676 24.1671 85.699 24.0683 85.7544 23.9828L91.104 15.7482C91.1554 15.669 91.2258 15.604 91.3087 15.559C91.3917 15.514 91.4846 15.4904 91.579 15.4905H93.1814C93.2758 15.4905 93.3687 15.514 93.4517 15.559C93.5346 15.604 93.605 15.6691 93.6565 15.7482L99.0016 23.9825C99.057 24.068 99.0883 24.1668 99.0923 24.2686C99.0962 24.3704 99.0726 24.4713 99.024 24.5608C98.9753 24.6503 98.9034 24.725 98.8159 24.777C98.7283 24.829 98.6283 24.8564 98.5265 24.8564H97.4679C97.3738 24.8563 97.2811 24.8327 97.1983 24.7878C97.1156 24.7429 97.0453 24.678 96.994 24.599ZM94.3291 20.495L92.7527 18.0654C92.7123 18.0033 92.6571 17.9522 92.5919 17.9168C92.5268 17.8814 92.4538 17.8629 92.3797 17.8629C92.3055 17.8629 92.2326 17.8814 92.1674 17.9168C92.1023 17.9522 92.047 18.0033 92.0066 18.0654L90.4288 20.495C90.3852 20.5621 90.3605 20.6398 90.3574 20.7198C90.3542 20.7998 90.3727 20.8792 90.4109 20.9495C90.4491 21.0199 90.5056 21.0786 90.5744 21.1196C90.6432 21.1605 90.7218 21.1821 90.8019 21.1822H93.9572C94.0371 21.1818 94.1155 21.16 94.1841 21.119C94.2527 21.0779 94.3089 21.0192 94.347 20.9489C94.385 20.8786 94.4034 20.7994 94.4003 20.7195C94.3972 20.6396 94.3726 20.5621 94.3291 20.495ZM137.214 24.599L136.463 23.4429C136.414 23.3684 136.348 23.307 136.27 23.2645C136.192 23.222 136.104 23.1997 136.016 23.1995H129.18C129.092 23.1997 129.004 23.2221 128.926 23.2646C128.848 23.3071 128.782 23.3684 128.733 23.4429L127.982 24.599C127.931 24.6782 127.861 24.7433 127.778 24.7883C127.695 24.8333 127.602 24.8568 127.507 24.8567H126.449C126.347 24.8567 126.247 24.8293 126.159 24.7773C126.072 24.7252 126 24.6505 125.951 24.5611C125.903 24.4716 125.879 24.3706 125.883 24.2689C125.887 24.1671 125.918 24.0683 125.974 23.9828L131.322 15.7482C131.373 15.669 131.443 15.6039 131.526 15.5589C131.609 15.5139 131.702 15.4904 131.797 15.4905H133.399C133.494 15.4904 133.587 15.5139 133.67 15.5589C133.753 15.6039 133.823 15.669 133.874 15.7482L139.221 23.9825C139.276 24.068 139.308 24.1668 139.312 24.2686C139.316 24.3704 139.292 24.4714 139.243 24.5609C139.195 24.6504 139.123 24.7252 139.035 24.7772C138.947 24.8292 138.847 24.8565 138.746 24.8564H137.689C137.594 24.8565 137.501 24.8331 137.418 24.7881C137.335 24.7431 137.265 24.6781 137.214 24.599ZM134.548 20.495L132.971 18.0654C132.93 18.0033 132.875 17.9522 132.81 17.9168C132.745 17.8814 132.672 17.8629 132.597 17.8629C132.523 17.8629 132.45 17.8814 132.385 17.9168C132.32 17.9522 132.265 18.0033 132.224 18.0654L130.646 20.495C130.603 20.5622 130.578 20.6398 130.575 20.7198C130.572 20.7998 130.591 20.8792 130.629 20.9495C130.667 21.0198 130.724 21.0786 130.792 21.1195C130.861 21.1605 130.94 21.1821 131.02 21.1822H134.175C134.255 21.1821 134.334 21.1605 134.403 21.1196C134.471 21.0786 134.528 21.0199 134.566 20.9495C134.604 20.8792 134.623 20.7998 134.62 20.7198C134.616 20.6398 134.592 20.5621 134.548 20.495ZM101.14 21.8322H102.845C102.886 21.8322 102.926 21.8486 102.955 21.8778C102.984 21.9071 103.001 21.9467 103.001 21.9881C103.002 22.2122 103.09 22.427 103.248 22.5862C103.406 22.7455 103.62 22.8364 103.844 22.8393H109.181C109.407 22.8386 109.623 22.7487 109.782 22.5893C109.942 22.4298 110.032 22.2136 110.032 21.9881C110.026 21.7726 109.935 21.5681 109.781 21.4177C109.626 21.2674 109.419 21.1829 109.204 21.1822H103.83C103.549 21.1823 103.27 21.1406 103.002 21.0584C102.556 20.9207 102.15 20.6762 101.82 20.3463C101.49 20.0164 101.246 19.6109 101.108 19.1651C101.028 18.9038 100.987 18.6324 100.985 18.3591C100.985 16.7813 102.275 15.4905 103.853 15.4905H109.182C110.464 15.4905 111.557 16.3423 111.92 17.5079C112.007 17.7834 112.05 18.0704 112.05 18.3591C112.05 18.4005 112.034 18.4401 112.004 18.4694C111.975 18.4986 111.935 18.5151 111.894 18.5151H110.189C110.148 18.5151 110.108 18.4986 110.079 18.4694C110.05 18.4401 110.034 18.4005 110.034 18.3591C110.033 18.1336 109.943 17.9174 109.783 17.758C109.624 17.5985 109.408 17.5086 109.182 17.5079H103.853C103.627 17.5086 103.411 17.5985 103.252 17.758C103.092 17.9174 103.002 18.1336 103.002 18.3591C103.008 18.5747 103.099 18.7791 103.253 18.9295C103.408 19.0798 103.615 19.1643 103.83 19.1651H109.204C109.485 19.1649 109.764 19.2066 110.033 19.2889C110.479 19.4265 110.884 19.671 111.214 20.0009C111.544 20.3308 111.789 20.7363 111.927 21.1822C112.007 21.4434 112.048 21.7149 112.05 21.9881C112.05 23.5659 110.76 24.8567 109.182 24.8567H103.853C102.571 24.8567 101.478 24.0049 101.114 22.8393C101.028 22.5638 100.984 22.2768 100.985 21.9881C100.985 21.9468 101.001 21.9072 101.03 21.8779C101.059 21.8487 101.099 21.8322 101.14 21.8322ZM114.347 17.0935V15.9064C114.347 15.7965 114.391 15.691 114.468 15.6133C114.546 15.5356 114.651 15.4919 114.761 15.4919H125.424C125.479 15.4918 125.533 15.5023 125.583 15.5231C125.634 15.5438 125.679 15.5743 125.718 15.6128C125.757 15.6513 125.787 15.6971 125.808 15.7475C125.829 15.7978 125.84 15.8518 125.84 15.9064V17.0949C125.84 17.2048 125.796 17.3102 125.719 17.3879C125.641 17.4656 125.535 17.5093 125.425 17.5093H121.516C121.406 17.5093 121.3 17.553 121.223 17.6307C121.145 17.7084 121.101 17.8138 121.101 17.9237V24.4422C121.101 24.5522 121.058 24.6576 120.98 24.7353C120.902 24.813 120.797 24.8567 120.687 24.8567H119.498C119.388 24.8567 119.283 24.813 119.205 24.7353C119.128 24.6576 119.084 24.5522 119.084 24.4422V17.9223C119.084 17.8124 119.04 17.707 118.962 17.6293C118.885 17.5516 118.779 17.5079 118.669 17.5079H114.761C114.651 17.5079 114.546 17.4642 114.468 17.3865C114.391 17.3088 114.347 17.2034 114.347 17.0935ZM151.195 21.9881C151.195 21.9467 151.211 21.9071 151.241 21.8778C151.27 21.8486 151.309 21.8322 151.351 21.8322H153.056C153.097 21.8322 153.137 21.8486 153.166 21.8778C153.195 21.9071 153.211 21.9467 153.211 21.9881C153.211 23.5659 151.921 24.8567 150.343 24.8567H144.164C142.586 24.8567 141.295 23.5659 141.295 21.9881V18.3591C141.295 16.7813 142.586 15.4905 144.163 15.4905H150.344C151.921 15.4905 153.212 16.7813 153.212 18.3591C153.212 18.3796 153.208 18.3999 153.2 18.4189C153.193 18.4378 153.181 18.4551 153.167 18.4696C153.152 18.4841 153.135 18.4956 153.116 18.5034C153.097 18.5113 153.077 18.5153 153.056 18.5153H151.352C151.331 18.5153 151.311 18.5113 151.292 18.5034C151.273 18.4956 151.256 18.4841 151.241 18.4696C151.227 18.4551 151.215 18.4378 151.208 18.4189C151.2 18.3999 151.196 18.3796 151.196 18.3591C151.195 18.1336 151.105 17.9174 150.946 17.758C150.786 17.5985 150.57 17.5086 150.345 17.5079H144.164C143.938 17.5086 143.722 17.5985 143.562 17.758C143.403 17.9174 143.313 18.1336 143.312 18.3591V21.9881C143.313 22.2136 143.403 22.4298 143.562 22.5893C143.722 22.7487 143.938 22.8386 144.164 22.8393H150.344C150.569 22.8386 150.785 22.7487 150.945 22.5893C151.104 22.4298 151.194 22.2136 151.195 21.9881ZM163.581 24.765L160.481 21.0706C160.389 20.9608 160.257 20.8921 160.114 20.8796C159.971 20.8671 159.829 20.9119 159.719 21.0041L157.839 22.5822C157.778 22.633 157.73 22.6964 157.696 22.768C157.663 22.8396 157.646 22.9177 157.646 22.9966V24.6015C157.646 24.635 157.639 24.6681 157.626 24.699C157.613 24.7299 157.595 24.758 157.571 24.7816C157.547 24.8053 157.519 24.824 157.488 24.8368C157.457 24.8496 157.424 24.8561 157.391 24.8561H155.882C155.814 24.8561 155.749 24.8293 155.702 24.7815C155.654 24.7338 155.627 24.669 155.627 24.6015V15.7451C155.627 15.6776 155.654 15.6129 155.702 15.5651C155.749 15.5174 155.814 15.4905 155.882 15.4905H157.391C157.424 15.4905 157.457 15.4971 157.488 15.5098C157.519 15.5226 157.547 15.5414 157.571 15.565C157.595 15.5887 157.613 15.6167 157.626 15.6476C157.639 15.6785 157.646 15.7117 157.646 15.7451V19.5113C157.645 19.5647 157.66 19.6171 157.689 19.6622C157.717 19.7073 157.758 19.7433 157.807 19.7659C157.855 19.7884 157.909 19.7967 157.962 19.7896C158.015 19.7825 158.065 19.7604 158.105 19.7259L162.767 15.8136C163.016 15.6048 163.331 15.4903 163.655 15.4903H165.591C165.643 15.4902 165.695 15.5063 165.737 15.5363C165.78 15.5663 165.813 15.6087 165.831 15.6579C165.849 15.7071 165.851 15.7605 165.837 15.811C165.824 15.8615 165.795 15.9066 165.755 15.9402L162.094 19.0125C162.039 19.0581 161.995 19.114 161.962 19.177C161.929 19.24 161.909 19.3088 161.903 19.3796C161.897 19.4503 161.904 19.5216 161.926 19.5893C161.947 19.6571 161.982 19.7199 162.027 19.7743L165.94 24.4381C165.971 24.4752 165.991 24.5206 165.998 24.5688C166.004 24.6171 165.997 24.6662 165.976 24.7103C165.956 24.7544 165.923 24.7917 165.882 24.8178C165.84 24.8438 165.793 24.8575 165.744 24.8572H163.776C163.739 24.857 163.702 24.8487 163.668 24.8327C163.635 24.8168 163.605 24.7937 163.581 24.765Z" fill="#46AEF7"/>
</svg>
